<mxfile host="app.diagrams.net" modified="2024-04-04T17:26:04.028Z" agent="Mozilla/5.0 (Windows NT 10.0; Win64; x64) AppleWebKit/537.36 (KHTML, like Gecko) Chrome/121.0.0.0 Safari/537.36 OPR/107.0.0.0" version="24.2.2" etag="3AKooAy18EWNRHUWMI9g" type="github">
  <diagram name="Страница — 1" id="UGFVoXprlMioHraaz0kg">
    <mxGraphModel>
      <root>
        <mxCell id="0" />
        <mxCell id="1" parent="0" />
      </root>
    </mxGraphModel>
  </diagram>
</mxfile>
